<svg id="Layer_1" data-name="Layer 1" xmlns="http://www.w3.org/2000/svg" width="15.4906" height="15.4907" viewBox="0 0 15.4906 15.4907"><defs><style>.cls-1{fill-rule:evenodd;}</style></defs><title>WEATHER 2</title><path class="cls-1" d="M4.998,10.4927A3.8853,3.8853,0,1,0,3.86,7.7453,3.8735,3.8735,0,0,0,4.998,10.4927Z"/><path class="cls-1" d="M7.7454,2.6417a.5278.5278,0,0,0,.5277-.5277V.5277a.5277.5277,0,1,0-1.0554,0V2.114A.5277.5277,0,0,0,7.7454,2.6417Z"/><path class="cls-1" d="M12.1,4.1365,13.222,3.0148a.5276.5276,0,0,0-.7461-.7461L11.3542,3.39a.5276.5276,0,0,0,.7461.7462Z"/><path class="cls-1" d="M12.8489,7.7453a.5277.5277,0,0,0,.5277.5277H14.963a.5277.5277,0,0,0,0-1.0553H13.3766A.5277.5277,0,0,0,12.8489,7.7453Z"/><path class="cls-1" d="M11.3542,11.3541a.5277.5277,0,0,0,0,.7462l1.1217,1.1217a.5276.5276,0,0,0,.7461-.7461L12.1,11.3541A.5276.5276,0,0,0,11.3542,11.3541Z"/><path class="cls-1" d="M7.2177,13.3765V14.963a.5277.5277,0,0,0,1.0554,0V13.3765a.5277.5277,0,0,0-1.0554,0Z"/><path class="cls-1" d="M3.39,11.3541,2.2687,12.4759a.5276.5276,0,0,0,.7462.7461L4.1366,12.1a.5276.5276,0,1,0-.7462-.7462Z"/><path class="cls-1" d="M.5277,8.273H2.1141a.5277.5277,0,1,0,0-1.0553H.5277a.5277.5277,0,1,0,0,1.0553Z"/><path class="cls-1" d="M3.39,4.1365A.5276.5276,0,0,0,4.1366,3.39L3.0149,2.2687a.5276.5276,0,1,0-.7462.7461Z"/></svg>