<svg id="Layer_1" data-name="Layer 1" xmlns="http://www.w3.org/2000/svg" width="17.0872" height="10.2063" viewBox="0 0 17.0872 10.2063"><defs><style>.cls-1{fill-rule:evenodd;}</style></defs><title>WEATHER 2</title><path class="cls-1" d="M2.9025,10.2063H13.6337a3.4533,3.4533,0,1,0-2.5866-5.7445A.5258.5258,0,0,1,10.26,3.765a4.5083,4.5083,0,0,1,1.5235-1.1227q.1821-.0819.3708-.1476A4.6569,4.6569,0,0,0,3.4247,3.952a.5256.5256,0,0,1-.2272.3593l-.0016.001-.0091.0059-.0107.0068-.0016.001-.01.0054-.0014.001-.01.0053-.0014.0008-.0012.0006-.01.0052-.01.0051-.0013,0a.525.525,0,0,1-.2274.0515,2.9025,2.9025,0,1,0,0,5.8049Z"/></svg>