<svg id="Layer_1" data-name="Layer 1" xmlns="http://www.w3.org/2000/svg" width="21.9633" height="15.0631" viewBox="0 0 21.9633 15.0631"><defs><style>.cls-1{fill-rule:evenodd;}</style></defs><title>WEATHER 2</title><path class="cls-1" d="M14.7456,2.1139V.5276a.5277.5277,0,0,0-1.0553,0V2.1139a.5277.5277,0,1,0,1.0553,0Z"/><path class="cls-1" d="M18.9484,2.2686,17.8269,3.39a.5276.5276,0,0,0,.7461.7462l1.1217-1.1217a.5276.5276,0,1,0-.7463-.7461Z"/><path class="cls-1" d="M21.4356,7.2176H19.8492a.5277.5277,0,1,0,0,1.0553h1.5864a.5277.5277,0,1,0,0-1.0553Z"/><path class="cls-1" d="M18.573,11.354a.5276.5276,0,0,0-.7461.7462l1.1215,1.1217a.5277.5277,0,1,0,.7463-.7462Z"/><path class="cls-1" d="M8.7413,2.2686a.5278.5278,0,0,0,0,.7461L9.8631,4.1364a.5276.5276,0,0,0,.7461-.7462L9.4874,2.2686A.5274.5274,0,0,0,8.7413,2.2686Z"/><path class="cls-1" d="M15.39,14.0987A3.2936,3.2936,0,1,0,10.5956,9.586a.5257.5257,0,0,1-.7874-.6967,4.3452,4.3452,0,0,1,1.469-1.0828q.1644-.0739.3342-.1342A4.4474,4.4474,0,0,0,3.2862,9.0859a.5281.5281,0,0,1-.5223.4493,2.764,2.764,0,1,0,0,5.5279H13.0618A3.2825,3.2825,0,0,0,15.39,14.0987Z"/><path class="cls-1" d="M17.7905,9.27A3.8835,3.8835,0,0,0,11.0912,5.442,5.4925,5.4925,0,0,1,12.67,7.44q.1947-.0179.3921-.0178A4.3344,4.3344,0,0,1,16.1363,8.696a4.3511,4.3511,0,0,1,1.0153,1.5949A3.8861,3.8861,0,0,0,17.7905,9.27Z"/></svg>