<svg id="Layer_1" data-name="Layer 1" xmlns="http://www.w3.org/2000/svg" width="15.2514" height="18.9293" viewBox="0 0 15.2514 18.9293"><defs><style>.cls-1{fill-rule:evenodd;}</style></defs><title>WEATHER 2</title><path class="cls-1" d="M7.6283,4.6491A7.6281,7.6281,0,0,0,0,12.2476l0,.03H0a.539.539,0,0,0,1.078,0h0a1.2392,1.2392,0,0,1,1.2343-1.2343h0a1.2389,1.2389,0,0,1,1.2341,1.2343h0a.539.539,0,0,0,1.078,0h0a1.2392,1.2392,0,0,1,1.2344-1.2343h0a1.239,1.239,0,0,1,1.2343,1.2343H7.096L7.09,17.345c-.0015.0157-.0021.0316-.0021.0476a1.533,1.533,0,0,0,.4511,1.0856l-.001.0009a1.5377,1.5377,0,0,0,2.6232-1.0865.5391.5391,0,1,0-1.0782,0,.4586.4586,0,0,1-.7827.3242l-.001.0011-.0011-.0011a.4559.4559,0,0,1-.1321-.3242c0-.0156-.0008-.031-.002-.0463L8.17,12.2774h.0021a1.2391,1.2391,0,0,1,1.2341-1.2343h0a1.2392,1.2392,0,0,1,1.2342,1.2343h0a.539.539,0,1,0,1.0779,0h0a1.2392,1.2392,0,0,1,1.2343-1.2343h0a1.2355,1.2355,0,0,1,1.226,1.0873l.0013,0a.5373.5373,0,0,0,1.0706-.0777A7.6287,7.6287,0,0,0,7.6283,4.6491Z"/><path class="cls-1" d="M5.2814.537,5.2775,3.7218a.5371.5371,0,1,0,1.0741,0L6.3555.537a.5371.5371,0,0,0-1.0741,0Z"/><path class="cls-1" d="M1.677.8475l-.0046,4.69a.5371.5371,0,0,0,1.0741,0l.0046-4.69a.5371.5371,0,0,0-1.0741,0Z"/><path class="cls-1" d="M3.522,2.64,3.5156,4.1384a.537.537,0,1,0,1.074.0041l.0065-1.498A.5371.5371,0,0,0,3.522,2.64Z"/><path class="cls-1" d="M7.5808,1.3632a.537.537,0,0,0-.5349.5391L7.0523,3.4a.5371.5371,0,1,0,1.0741-.0042L8.12,1.8981A.537.537,0,0,0,7.5808,1.3632Z"/><path class="cls-1" d="M9.4364,0H9.4352L9.4318.0007,9.4284,0a.537.537,0,0,0-.537.537l.004,3.1848a.5371.5371,0,0,0,.537.5371l.0034-.0007.0034.0007a.537.537,0,0,0,.5369-.5371l-.0033-2.691L9.9734.537A.5371.5371,0,0,0,9.4364,0Z"/><path class="cls-1" d="M13.04.3105a.5371.5371,0,0,0-.537.537l.0046,4.69a.5371.5371,0,0,0,1.0741,0l-.0046-4.69A.5371.5371,0,0,0,13.04.3105Z"/><path class="cls-1" d="M11.1926,2.1054a.5371.5371,0,0,0-.5349.5391l.0064,1.498a.537.537,0,1,0,1.074-.0041L11.7318,2.64A.5371.5371,0,0,0,11.1926,2.1054Z"/></svg>