<svg id="Layer_1" data-name="Layer 1" xmlns="http://www.w3.org/2000/svg" width="17.0871" height="13.2118" viewBox="0 0 17.0871 13.2118"><defs><style>.cls-1{fill-rule:evenodd;}</style></defs><title>WEATHER 2</title><path class="cls-1" d="M13.6337,3.2994a3.4552,3.4552,0,0,0-2.5866,1.1624A.5257.5257,0,1,1,10.26,3.765a4.5083,4.5083,0,0,1,1.5234-1.1227q.182-.0819.3708-.1476A4.6568,4.6568,0,0,0,3.4248,3.9521a.5285.5285,0,0,1-.5224.4493,2.9024,2.9024,0,1,0,0,5.8048H5.7851a.9582.9582,0,0,1,.0921-.5038l1.5992-3.31a.9646.9646,0,0,1,.88-.57h1.8622A.9644.9644,0,0,1,11.04,7.2786l-.465.7838a.9639.9639,0,0,1,.4921,1.57l-.5025.5738h3.0692a3.4534,3.4534,0,0,0,0-6.9068Z"/><path class="cls-1" d="M8.3562,6.6376a.1494.1494,0,0,0-.1389.0944L6.6109,10.0569a.149.149,0,0,0,.0694.1989.1466.1466,0,0,0,.0647.0148v0h.9626L6.6437,13.0092a.1488.1488,0,0,0,.2524.15l3.558-4.0634a.1489.1489,0,0,0-.112-.2469V8.8483H9.1614l1.1778-1.9855a.1491.1491,0,0,0-.1284-.2249v0Z"/></svg>