<svg id="Layer_1" data-name="Layer 1" xmlns="http://www.w3.org/2000/svg" width="14.556" height="13.9713" viewBox="0 0 14.556 13.9713"><defs><style>.cls-1{fill-rule:evenodd;}</style></defs><title>WEATHER 2</title><path class="cls-1" d="M1.3744,7.1684h9.5274c.0225.002.0454.003.0685.003A3.5857,3.5857,0,1,0,7.3846,3.5857a.7788.7788,0,0,0,1.5575,0A2.0283,2.0283,0,1,1,10.97,5.6139c-.0231,0-.046.0011-.0685.003H1.3744a.7757.7757,0,0,0,0,1.5514Z"/><path class="cls-1" d="M.7757,9.595H8.1823q.0338.003.0685.003a1.408,1.408,0,1,1-1.4079,1.4078.7788.7788,0,0,0-1.5575,0A2.9654,2.9654,0,1,0,8.2508,8.0407c-.0231,0-.046.001-.0685.003H.7757a.7757.7757,0,1,0,0,1.5514Z"/></svg>